<?xml version="1.0" encoding="UTF-8"?>
<svg width="17px" height="17px" viewBox="0 0 17 17" version="1.1" xmlns="http://www.w3.org/2000/svg" xmlns:xlink="http://www.w3.org/1999/xlink">
    <!-- Generator: Sketch 43.2 (39069) - http://www.bohemiancoding.com/sketch -->
    <title>Calendar_Icon_Active</title>
    <desc>Created with Sketch.</desc>
    <defs></defs>
    <g id="Symbols" stroke="none" stroke-width="1" fill="none" fill-rule="evenodd">
        <g id="Calendar-Icon-Active" transform="translate(-21.000000, -12.000000)" fill="#FFFFFF">
            <path d="M21.8143713,28.167 L37.1856287,28.167 L37.1856287,18 L21.8143713,18 L21.8143713,28.167 Z M25.9429986,13.919 L25.9429986,14.6333576 C25.9429986,14.8782194 26.1250576,15.0762381 26.3501842,15.0762381 C26.5753109,15.0762381 26.7573699,14.8782194 26.7573699,14.6333576 L26.7573699,13.919 L32.20152,13.919 L32.20152,14.6333576 C32.20152,14.8782194 32.3845578,15.0762381 32.6087057,15.0762381 C32.8338323,15.0762381 33.0158913,14.8782194 33.0158913,14.6333576 L33.0158913,13.919 L37.1856287,13.919 L37.1856287,17 L21.8143713,17 L21.8143713,13.919 L25.9429986,13.919 Z M33.0158913,13.087 L33.0158913,12.416 C33.0158913,12.186 32.8338323,12 32.6087057,12 C32.3845578,12 32.20152,12.186 32.20152,12.416 L32.20152,13.087 L26.7573699,13.087 L26.7573699,12.416 C26.7573699,12.186 26.5753109,12 26.3501842,12 C26.1250576,12 25.9429986,12.186 25.9429986,12.416 L25.9429986,13.087 L21.4071856,13.087 C21.1830378,13.087 21,13.273 21,13.503 L21,28.584 C21,28.813 21.1830378,29 21.4071856,29 L37.5928144,29 C37.817941,29 38,28.813 38,28.584 L38,13.503 C38,13.273 37.817941,13.087 37.5928144,13.087 L33.0158913,13.087 Z" id="Calendar_Icon_Active"></path>
        </g>
    </g>
</svg>