<?xml version="1.0" encoding="UTF-8"?>
<svg width="16px" height="12px" viewBox="0 0 16 12" version="1.1" xmlns="http://www.w3.org/2000/svg" xmlns:xlink="http://www.w3.org/1999/xlink">
    <!-- Generator: Sketch 44.1 (41455) - http://www.bohemiancoding.com/sketch -->
    <title>Icons / Car / Medium Gray</title>
    <desc>Created with Sketch.</desc>
    <defs></defs>
    <g id="HSBC-Artwork" stroke="none" stroke-width="1" fill="none" fill-rule="evenodd">
        <g id="Components" transform="translate(-441.000000, -135.000000)" fill="#000000">
            <g id="Icons-/-Car-/-Medium-Gray" transform="translate(437.000000, 127.000000)">
                <path d="M18.383,15.383 C18.627,15.138 18.75,14.844 18.75,14.5 C18.75,14.156 18.627,13.862 18.383,13.617 C18.137,13.372 17.843,13.25 17.499,13.25 C17.156,13.25 16.861,13.372 16.617,13.617 C16.372,13.862 16.25,14.156 16.25,14.5 C16.25,14.844 16.372,15.138 16.617,15.383 C16.861,15.628 17.156,15.75 17.499,15.75 C17.843,15.75 18.137,15.628 18.383,15.383 L18.383,15.383 Z M8.03,12 L15.967,12 L15.272,9.211 C15.262,9.169 15.226,9.123 15.163,9.074 C15.101,9.024 15.047,9 14.999,9 L8.999,9 C8.952,9 8.898,9.024 8.835,9.074 C8.772,9.123 8.736,9.169 8.726,9.211 L8.03,12 Z M7.381,15.383 C7.627,15.138 7.749,14.844 7.749,14.5 C7.749,14.156 7.627,13.862 7.381,13.617 C7.137,13.372 6.843,13.25 6.499,13.25 C6.155,13.25 5.862,13.372 5.616,13.617 C5.371,13.862 5.248,14.156 5.248,14.5 C5.248,14.844 5.371,15.138 5.616,15.383 C5.862,15.628 6.155,15.75 6.499,15.75 C6.843,15.75 7.137,15.628 7.381,15.383 L7.381,15.383 Z M19.999,14.4794816 L19.999,17.3592513 C19.999,17.4293257 19.976,17.486921 19.929,17.5320374 C19.882,17.5771538 19.823,17.5992321 19.75,17.5992321 L18.999,17.5992321 L18.999,18.5591553 C18.999,18.9594432 18.854,19.2982961 18.562,19.5795536 C18.27,19.8598512 17.916,20 17.499,20 C17.083,20 16.729,19.8598512 16.437,19.5795536 C16.145,19.2982961 15.999,18.9594432 15.999,18.5591553 L15.999,17.5992321 L7.999,17.5992321 L7.999,18.5591553 C7.999,18.9594432 7.853,19.2982961 7.561,19.5795536 C7.27,19.8598512 6.916,20 6.499,20 C6.082,20 5.728,19.8598512 5.436,19.5795536 C5.145,19.2982961 4.999,18.9594432 4.999,18.5591553 L4.999,17.5992321 L4.249,17.5992321 C4.176,17.5992321 4.116,17.5771538 4.069,17.5320374 C4.022,17.486921 4,17.4293257 4,17.3592513 L4,14.4794816 C4,14.0148788 4.169,13.6184305 4.51,13.2910967 C4.852,12.9637629 5.264,12.799616 5.75,12.799616 L5.968,12.799616 L6.789,9.65778738 C6.907,9.18742501 7.178,8.79385649 7.6,8.47612191 C8.023,8.15838733 8.488,8 8.999,8 L14.999,8 C15.509,8 15.977,8.15838733 16.398,8.47612191 C16.82,8.79385649 17.091,9.18742501 17.211,9.65778738 L18.031,12.799616 L18.249,12.799616 C18.734,12.799616 19.147,12.9637629 19.488,13.2910967 C19.828,13.6184305 19.999,14.0148788 19.999,14.4794816 L19.999,14.4794816 Z" id="Fill-1"></path>
            </g>
        </g>
    </g>
</svg>