<?xml version="1.0" encoding="UTF-8"?>
<svg width="16px" height="14px" viewBox="0 0 16 14" version="1.1" xmlns="http://www.w3.org/2000/svg" xmlns:xlink="http://www.w3.org/1999/xlink">
    <!-- Generator: Sketch 44.1 (41455) - http://www.bohemiancoding.com/sketch -->
    <title>Icons / Chat Bubble / Dark Gray</title>
    <desc>Created with Sketch.</desc>
    <defs>
        <polygon id="path-1" points="7.80177322 0 0 0 0 14.0243838 7.80177322 14.0243838 15.6035464 14.0243838 15.6035464 0"></polygon>
    </defs>
    <g id="HSBC-Artwork" stroke="none" stroke-width="1" fill="none" fill-rule="evenodd" opacity="0.8">
        <g id="Components" transform="translate(-390.000000, -156.000000)">
            <g id="Icons-/-Chat-Bubble-/-Dark-Gray" transform="translate(386.000000, 151.000000)">
                <g id="Investor-Feedback-Icon-Roadshow" transform="translate(4.000000, 5.000000)">
                    <g id="Group-3">
                        <mask id="mask-2" fill="white">
                            <use xlink:href="#path-1"></use>
                        </mask>
                        <g id="Clip-2"></g>
                        <path d="M11.1466999,4.82088194 C12.9128595,4.82088194 14.4976244,5.45811488 15.5830664,6.46085832 C15.5908683,6.35216935 15.6035464,6.24523342 15.6035464,6.13566792 C15.6035464,2.74790271 12.1121875,0 7.80162693,0 C3.49301689,0 -0.000292571982,2.74790271 -0.000292571982,6.13566792 C-0.000292571982,7.7423364 0.790627018,9.20174884 2.07599326,10.2938977 L-0.000292571982,14.0243838 L4.8973624,11.8243086 C5.27575549,11.9435159 5.66682671,12.0425631 6.07252652,12.1153146 C5.92233957,11.910208 5.79458314,11.6945831 5.68048007,11.471946 C5.61708947,11.3474796 5.5615008,11.2186305 5.5127388,11.088905 C5.33134417,10.6313595 5.22504302,10.1475182 5.22504302,9.64176388 C5.22504302,6.98326662 7.88159661,4.82088194 11.1466999,4.82088194" id="Fill-1" fill="#223037" mask="url(#mask-2)"></path>
                    </g>
                    <path d="M14.1581433,11.2218737 C14.7998512,10.4785813 15.0933984,9.55560157 14.8612913,8.63700443 C14.4175572,6.87431469 12.2378959,5.81459719 9.99776975,6.27126619 C7.75861885,6.72793518 6.30258563,8.52831546 6.7463198,10.2910052 C7.19200445,12.0536949 9.36971523,13.1125359 11.6098414,12.6558669 C11.7122416,12.6348303 11.8039141,12.5971398 11.9043638,12.5708441 L15.6034489,14.0241209 L14.1581433,11.2218737 Z" id="Fill-4" fill="#223037"></path>
                </g>
            </g>
        </g>
    </g>
</svg>