<?xml version="1.0" encoding="UTF-8"?>
<svg width="12px" height="16px" viewBox="0 0 12 16" version="1.1" xmlns="http://www.w3.org/2000/svg" xmlns:xlink="http://www.w3.org/1999/xlink">
    <!-- Generator: Sketch 43.2 (39069) - http://www.bohemiancoding.com/sketch -->
    <title>Documents_Icon</title>
    <desc>Created with Sketch.</desc>
    <defs>
        <polygon id="path-1" points="12 7.9998 12 0 0 0 0 7.9998 0 15.9996 12 15.9996"></polygon>
    </defs>
    <g id="Symbols" stroke="none" stroke-width="1" fill="none" fill-rule="evenodd">
        <g id="Documents-Icon" transform="translate(-21.000000, -13.000000)">
            <g id="Group-2">
                <g id="Group" transform="translate(21.000000, 13.000000)">
                    <g id="Documents_Icon">
                        <g id="Group-3">
                            <mask id="mask-2" fill="white">
                                <use xlink:href="#path-1"></use>
                            </mask>
                            <g id="Clip-2"></g>
                            <path d="M0.857,15.1426 L0.857,0.8576 L7.02606201,0.8576 L7.02606201,5.5716 C7.02606201,5.8076 7.049,5.9996 7.286,5.9996 L11.143,5.9996 L11.143,15.1426 L0.857,15.1426 Z M7.714,1.6126 L8.589,2.6626 L10.656,5.1426 L7.714,5.1426 L7.714,1.6126 Z M11.997,5.5306 C11.996,5.5236 11.996,5.5166 11.995,5.5096 C11.99,5.4756 11.98,5.4426 11.967,5.4106 C11.964,5.4036 11.961,5.3966 11.958,5.3896 C11.943,5.3576 11.924,5.3266 11.901,5.2976 L11.901,5.2966 L7.615,0.1546 C7.596,0.1316 7.576,0.1136 7.554,0.0956 C7.548,0.0906 7.543,0.0866 7.537,0.0816 C7.517,0.0686 7.498,0.0566 7.477,0.0456 C7.472,0.0436 7.468,0.0406 7.468,0.0406 C7.439,0.0276 7.413,0.0196 7.386,0.0126 C7.386,0.0126 7.373,0.0096 7.367,0.0086 C7.344,0.0046 7.322,0.0016 7.298,0.0006 C7.294,0.0006 7.291,-0.0004 7.286,-0.0004 L0.428,-0.0004 C0.192,-0.0004 0,0.1916 0,0.4286 L0,15.5716 C0,15.8076 0.192,15.9996 0.428,15.9996 L11.572,15.9996 C11.808,15.9996 12,15.8076 12,15.5716 L12,5.5716 C12,5.5576 11.998,5.5436 11.997,5.5306 L11.997,5.5306 Z" id="Fill-1" fill="#A4B0B8" mask="url(#mask-2)"></path>
                        </g>
                        <path d="M8.66255899,8.1426 L3.33665443,8.1426 C3.15023597,8.1426 3,8.3346 3,8.5716 C3,8.8076 3.15023597,8.9996 3.33665443,8.9996 L8.66255899,8.9996 C8.84897745,8.9996 9,8.8076 9,8.5716 C9,8.3346 8.84897745,8.1426 8.66255899,8.1426" id="Fill-4" fill="#A4B0B8"></path>
                        <path d="M8.66255899,12.1426 L3.33665443,12.1426 C3.15023597,12.1426 3,12.3346 3,12.5716 C3,12.8076 3.15023597,12.9996 3.33665443,12.9996 L8.66255899,12.9996 C8.84897745,12.9996 9,12.8076 9,12.5716 C9,12.3346 8.84897745,12.1426 8.66255899,12.1426" id="Fill-4-Copy" fill="#A4B0B8"></path>
                        <path d="M8.66255899,10.1924 L3.33665443,10.1924 C3.15023597,10.1924 3,10.3844 3,10.6214 C3,10.8584 3.15023597,11.0494 3.33665443,11.0494 L8.66255899,11.0494 C8.84897745,11.0494 9,10.8584 9,10.6214 C9,10.3844 8.84897745,10.1924 8.66255899,10.1924" id="Fill-6" fill="#A4B0B8"></path>
                    </g>
                </g>
            </g>
        </g>
    </g>
</svg>