<?xml version="1.0" encoding="UTF-8"?>
<svg width="19px" height="18px" viewBox="0 0 19 18" version="1.1" xmlns="http://www.w3.org/2000/svg" xmlns:xlink="http://www.w3.org/1999/xlink">
    <!-- Generator: Sketch 43.2 (39069) - http://www.bohemiancoding.com/sketch -->
    <title>Home_Icon_Active</title>
    <desc>Created with Sketch.</desc>
    <defs></defs>
    <g id="Symbols" stroke="none" stroke-width="1" fill="none" fill-rule="evenodd">
        <g id="Home-Icon-Active" transform="translate(-21.000000, -11.000000)" fill="#FFFFFF">
            <path d="M35.9998814,27.1049 L24.9847412,27.015686 L24.9847412,17.399686 L30.2052624,12.0509 L35.9998814,17.4879 L35.9998814,27.1049 Z M39.6418,19.2179 L30.6948,11.1159 C30.5248,10.9609 30.2648,10.9609 30.0948,11.1159 L21.1468,19.2179 C20.9638,19.3829 20.9498,19.6669 21.1158,19.8489 C21.2048,19.9469 21.3258,19.9969 21.4478,19.9969 C21.5538,19.9969 21.6618,19.9589 21.7478,19.8799 L24.0009766,18.0076904 L23.9337373,27.5589346 C23.9337373,27.8059346 24.1337373,28.0079346 24.3807373,28.0079346 L36.6259766,27.9824219 C36.8729766,27.9824219 37.0739766,27.7804219 37.0739766,27.5334219 L36.9906006,18.0604248 L39.0428,19.8799 C39.2248,20.0459 39.5078,20.0329 39.6738,19.8489 C39.8388,19.6669 39.8258,19.3829 39.6418,19.2179 L39.6418,19.2179 Z" id="Home_Icon_Active"></path>
        </g>
    </g>
</svg>