<?xml version="1.0" encoding="UTF-8"?>
<svg width="19px" height="18px" viewBox="0 0 19 18" version="1.1" xmlns="http://www.w3.org/2000/svg" xmlns:xlink="http://www.w3.org/1999/xlink">
    <!-- Generator: Sketch 43.2 (39069) - http://www.bohemiancoding.com/sketch -->
    <title>Home_Icon</title>
    <desc>Created with Sketch.</desc>
    <defs></defs>
    <g id="Symbols" stroke="none" stroke-width="1" fill="none" fill-rule="evenodd">
        <g id="Home-Icon" transform="translate(-21.000000, -11.000000)" fill="#A4B0B8">
            <g id="Group-2">
                <g id="Group-8" transform="translate(21.000000, 11.000000)">
                    <path d="M14.9998814,16.1049 L3.98474121,16.015686 L3.98474121,6.39968604 L9.20526238,1.0509 L14.9998814,6.4879 L14.9998814,16.1049 Z M18.6418,8.2179 L9.6948,0.1159 C9.5248,-0.0391 9.2648,-0.0391 9.0948,0.1159 L0.1468,8.2179 C-0.0362,8.3829 -0.0502,8.6669 0.1158,8.8489 C0.2048,8.9469 0.3258,8.9969 0.4478,8.9969 C0.5538,8.9969 0.6618,8.9589 0.7478,8.8799 L3.00097656,7.00769043 L2.9337373,16.5589346 C2.9337373,16.8059346 3.1337373,17.0079346 3.3807373,17.0079346 L15.6259766,16.9824219 C15.8729766,16.9824219 16.0739766,16.7804219 16.0739766,16.5334219 L15.9906006,7.0604248 L18.0428,8.8799 C18.2248,9.0459 18.5078,9.0329 18.6738,8.8489 C18.8388,8.6669 18.8258,8.3829 18.6418,8.2179 L18.6418,8.2179 Z" id="Home_Icon"></path>
                </g>
            </g>
        </g>
    </g>
</svg>