<?xml version="1.0" encoding="UTF-8"?>
<svg width="12px" height="16px" viewBox="0 0 12 16" version="1.1" xmlns="http://www.w3.org/2000/svg" xmlns:xlink="http://www.w3.org/1999/xlink">
    <!-- Generator: Sketch 44.1 (41455) - http://www.bohemiancoding.com/sketch -->
    <title>Icons / Hotel / Medium Gray</title>
    <desc>Created with Sketch.</desc>
    <defs></defs>
    <g id="HSBC-Artwork" stroke="none" stroke-width="1" fill="none" fill-rule="evenodd">
        <g id="Components" transform="translate(-417.000000, -131.000000)" fill="#000000">
            <g id="Icons-/-Hotel-/-Medium-Gray" transform="translate(411.000000, 127.000000)">
                <path d="M6,20 L18,20 L18,4 L6,4 L6,20 Z M14,8.001 L16,8.001 L16,6 L14,6 L14,8.001 Z M11,8.001 L13,8.001 L13,6 L11,6 L11,8.001 Z M8,8.001 L10,8.001 L10,6 L8,6 L8,8.001 Z M14,11 L16,11 L16,9 L14,9 L14,11 Z M11,11 L13,11 L13,9 L11,9 L11,11 Z M8,11 L10,11 L10,9 L8,9 L8,11 Z M14,14 L16,14 L16,12 L14,12 L14,14 Z M11,14 L13,14 L13,12 L11,12 L11,14 Z M8,14 L10,14 L10,12 L8,12 L8,14 Z M14,17.001 L16,17.001 L16,15 L14,15 L14,17.001 Z M11,17.001 L13,17.001 L13,15 L11,15 L11,17.001 Z M8,17.001 L10,17.001 L10,15 L8,15 L8,17.001 Z M11,19 L13,19 L13,18 L11,18 L11,19 Z" id="hotel"></path>
            </g>
        </g>
    </g>
</svg>