<?xml version="1.0" encoding="UTF-8"?>
<svg width="18px" height="18px" viewBox="0 0 18 18" version="1.1" xmlns="http://www.w3.org/2000/svg" xmlns:xlink="http://www.w3.org/1999/xlink">
    <!-- Generator: Sketch 43.2 (39069) - http://www.bohemiancoding.com/sketch -->
    <title>Investors_Icon_Active</title>
    <desc>Created with Sketch.</desc>
    <defs>
        <polygon id="path-1" points="0.0004 -2.36658272e-30 0.0004 17.9994 17.9754 17.9994 17.9754 -3.55271368e-15"></polygon>
    </defs>
    <g id="Symbols" stroke="none" stroke-width="1" fill="none" fill-rule="evenodd">
        <g id="Investors-Icon-Active" transform="translate(-16.000000, -12.000000)">
            <g id="Group-2">
                <g id="Investors_Icon_Active" transform="translate(16.000000, 12.000000)">
                    <mask id="mask-2" fill="white">
                        <use xlink:href="#path-1"></use>
                    </mask>
                    <g id="Clip-2"></g>
                    <path d="M0.8674,17.1444 C1.0254,14.0774 2.8764,11.3834 5.6934,10.1374 C5.8404,10.2804 5.9954,10.4124 6.1574,10.5334 C6.1644,10.5394 6.1724,10.5444 6.1794,10.5504 C6.2244,10.5844 6.2714,10.6184 6.3194,10.6504 C6.3374,10.6634 6.3544,10.6754 6.3734,10.6874 C6.4104,10.7124 6.4484,10.7364 6.4864,10.7594 L6.5744,10.8154 C6.6014,10.8314 6.6304,10.8464 6.6574,10.8634 C6.6984,10.8864 6.7404,10.9104 6.7824,10.9324 C6.7994,10.9414 6.8164,10.9504 6.8344,10.9584 C6.8874,10.9864 6.9394,11.0124 6.9934,11.0384 C7.0014,11.0414 7.0094,11.0444 7.0164,11.0484 C7.4184,11.2344 7.8484,11.3654 8.3014,11.4314 L8.3054,11.4324 C8.3794,11.4434 8.4514,11.4524 8.5244,11.4594 C8.5474,11.4614 8.5684,11.4624 8.5904,11.4644 C8.6444,11.4684 8.6984,11.4734 8.7544,11.4764 C8.8304,11.4804 8.9074,11.4824 8.9854,11.4824 L8.9874,11.4824 C9.0664,11.4824 9.1444,11.4804 9.2224,11.4764 C9.2754,11.4734 9.3284,11.4694 9.3814,11.4644 C9.4044,11.4624 9.4284,11.4614 9.4514,11.4594 C9.5224,11.4524 9.5944,11.4434 9.6644,11.4334 L9.6764,11.4314 C10.0554,11.3754 10.4224,11.2734 10.7674,11.1314 C10.8324,11.1054 10.8944,11.0784 10.9564,11.0494 C10.9654,11.0454 10.9734,11.0414 10.9834,11.0374 C11.0354,11.0124 11.0874,10.9864 11.1384,10.9594 C11.1574,10.9514 11.1764,10.9414 11.1944,10.9314 C11.2354,10.9104 11.2754,10.8864 11.3154,10.8644 C11.3454,10.8474 11.3734,10.8314 11.4024,10.8144 C11.4304,10.7964 11.4584,10.7794 11.4864,10.7614 C11.5254,10.7374 11.5644,10.7124 11.6034,10.6864 C11.6204,10.6754 11.6374,10.6644 11.6534,10.6524 C11.7024,10.6194 11.7504,10.5844 11.7984,10.5494 C11.8044,10.5444 11.8084,10.5404 11.8144,10.5374 C11.9774,10.4144 12.1354,10.2814 12.2814,10.1374 C15.0994,11.3834 16.9504,14.0774 17.1084,17.1444 L0.8674,17.1444 Z M5.1364,4.7074 C5.1364,2.5834 6.8634,0.8564 8.9874,0.8564 C11.1114,0.8564 12.8404,2.5834 12.8404,4.7074 L12.8404,6.7744 C12.8404,8.0234 12.2414,9.1344 11.3174,9.8394 L11.2824,9.8664 C11.2514,9.8894 11.2184,9.9134 11.1854,9.9354 C11.1634,9.9514 11.1404,9.9664 11.1174,9.9824 C11.0924,9.9984 11.0654,10.0154 11.0394,10.0324 C11.0084,10.0524 10.9754,10.0724 10.9434,10.0904 C10.9244,10.1024 10.9034,10.1144 10.8844,10.1254 C10.8444,10.1484 10.8034,10.1704 10.7624,10.1914 C10.7484,10.1994 10.7334,10.2064 10.7204,10.2134 C10.6714,10.2384 10.6234,10.2614 10.5734,10.2834 C10.5644,10.2874 10.5564,10.2904 10.5484,10.2944 C10.4924,10.3204 10.4354,10.3434 10.3794,10.3654 C10.3764,10.3664 10.3734,10.3684 10.3704,10.3694 C10.0584,10.4894 9.7324,10.5684 9.3974,10.6044 L9.3944,10.6044 C9.3334,10.6114 9.2714,10.6164 9.2094,10.6204 L9.1904,10.6214 C9.1234,10.6244 9.0554,10.6264 8.9874,10.6264 C8.9204,10.6264 8.8514,10.6244 8.7844,10.6214 C8.7784,10.6214 8.7724,10.6204 8.7664,10.6204 C8.7044,10.6164 8.6424,10.6114 8.5814,10.6044 L8.5794,10.6044 C8.2434,10.5684 7.9164,10.4894 7.6044,10.3694 L7.5984,10.3664 C7.5404,10.3434 7.4824,10.3194 7.4264,10.2934 C7.4194,10.2904 7.4114,10.2884 7.4044,10.2854 C7.3534,10.2614 7.3044,10.2374 7.2544,10.2124 C7.2414,10.2064 7.2284,10.1994 7.2164,10.1934 C7.1734,10.1704 7.1314,10.1474 7.0894,10.1234 C7.0704,10.1134 7.0534,10.1034 7.0344,10.0924 C7.0004,10.0724 6.9664,10.0514 6.9324,10.0304 C6.9084,10.0144 6.8844,9.9994 6.8604,9.9834 C6.8354,9.9664 6.8104,9.9494 6.7864,9.9324 C6.7554,9.9114 6.7244,9.8894 6.6944,9.8674 C6.6804,9.8564 6.6664,9.8454 6.6524,9.8344 C5.7314,9.1294 5.1364,8.0204 5.1364,6.7744 L5.1364,4.7074 Z M13.6954,6.7744 L13.6954,4.7074 C13.6954,2.1124 11.5844,-0.0006 8.9874,-0.0006 C6.3914,-0.0006 4.2794,2.1124 4.2794,4.7074 L4.2794,6.7744 C4.2794,7.7714 4.5924,8.6974 5.1234,9.4584 C3.30877308,10.3204927 1.7147399,11.5740902 0.831237793,13.2916565 C-0.0522643151,15.0092228 0.000400000001,16.1011153 0.000400000001,17.5724 C0.000400000001,17.8084 0.1914,17.9994 0.4284,17.9994 L17.5484,17.9994 C17.7844,17.9994 17.9754,17.8084 17.9754,17.5724 C17.9754,15.909126 17.8207701,14.3393215 17.0127869,12.9808655 C16.2048036,11.6224094 14.4949076,10.238948 12.8514,9.4584 C13.3834,8.6974 13.6954,7.7714 13.6954,6.7744 Z" id="Fill-1" fill="#FFFFFF" mask="url(#mask-2)"></path>
                </g>
            </g>
        </g>
    </g>
</svg>