<?xml version="1.0" encoding="UTF-8"?>
<svg width="22px" height="17px" viewBox="0 0 22 17" version="1.1" xmlns="http://www.w3.org/2000/svg" xmlns:xlink="http://www.w3.org/1999/xlink">
    <!-- Generator: Sketch 43.2 (39069) - http://www.bohemiancoding.com/sketch -->
    <title>Orders_Icon</title>
    <desc>Created with Sketch.</desc>
    <defs>
        <polygon id="path-1" points="21.9 16.9994 21.9 0.00015 -9.99999993e-05 0.00015 -9.99999993e-05 16.9994"></polygon>
    </defs>
    <g id="Symbols" stroke="none" stroke-width="1" fill="none" fill-rule="evenodd">
        <g id="Orders-Icon" transform="translate(-20.000000, -12.000000)">
            <g id="Orders_Icon" transform="translate(20.000000, 12.000000)">
                <g id="Group-3">
                    <mask id="mask-2" fill="white">
                        <use xlink:href="#path-1"></use>
                    </mask>
                    <g id="Clip-2"></g>
                    <path d="M18.9759,16.0614 L2.9239,16.0614 L2.058,8 L20,8 L18.9759,16.0614 Z M1.0429,5.0494 L20.8579,5.0494 L20.8579,7.00015 L20.5039,7.00015 L1.3969,7.00015 L1.0429,7.00015 L1.0429,5.0494 Z M21.3789,4.1114 L15.9479,4.1114 L19.6239,0.8004 C19.8289,0.6184 19.8289,0.3204 19.6239,0.1374 C19.4209,-0.0456 19.0909,-0.0456 18.8869,0.1374 L14.4729,4.1114 L7.4279,4.1114 L3.0129,0.1374 C2.8099,-0.0456 2.4799,-0.0456 2.2759,0.1374 C2.0729,0.3214 2.0729,0.6184 2.2759,0.8004 L5.9539,4.1114 L0.5219,4.1114 C0.2339,4.1114 -9.99999993e-05,4.3214 -9.99999993e-05,4.5804 L-9.99999993e-05,7.9324 C-9.99999993e-05,8.1914 0.2339,8.4014 0.5219,8.4014 L0.9299,8.4014 L1.9399,16.5824 C1.9689,16.8204 2.1929,16.9994 2.4579,16.9994 L19.4429,16.9994 C19.7079,16.9994 19.9309,16.8204 19.9599,16.5824 L20.9709,8.4014 L21.3789,8.4014 C21.6669,8.4014 21.9009,8.1914 21.9009,7.9324 L21.9009,4.5804 C21.9009,4.3214 21.6669,4.1114 21.3789,4.1114 L21.3789,4.1114 Z" id="Fill-1" fill="#A4B0B8" mask="url(#mask-2)"></path>
                </g>
                <path d="M9.521,14.010376 C9.809,14.010376 10.042,13.8413368 10.042,13.6328551 L10.042,10.377643 C10.042,10.1691613 9.809,10.0001221 9.521,10.0001221 C9.233,10.0001221 9,10.1691613 9,10.377643 L9,13.6328551 C9,13.8413368 9.233,14.010376 9.521,14.010376" id="Fill-4" fill="#A4B0B8"></path>
                <path d="M12.521,14.010376 C12.809,14.010376 13.042,13.8413368 13.042,13.6328551 L13.042,10.377643 C13.042,10.1691613 12.809,10.0001221 12.521,10.0001221 C12.234,10.0001221 12,10.1691613 12,10.377643 L12,13.6328551 C12,13.8413368 12.234,14.010376 12.521,14.010376" id="Fill-8" fill="#A4B0B8"></path>
                <path d="M15.521,14.010376 C15.809,14.010376 16.042,13.8413368 16.042,13.6328551 L16.042,10.377643 C16.042,10.1691613 15.809,10.0001221 15.521,10.0001221 C15.233,10.0001221 15,10.1691613 15,10.377643 L15,13.6328551 C15,13.8413368 15.233,14.010376 15.521,14.010376" id="Fill-10" fill="#A4B0B8"></path>
                <path d="M6.521,14.010376 C6.809,14.010376 7.042,13.8413368 7.042,13.6328551 L7.042,10.377643 C7.042,10.1691613 6.809,10.0001221 6.521,10.0001221 C6.233,10.0001221 6,10.1691613 6,10.377643 L6,13.6328551 C6,13.8413368 6.233,14.010376 6.521,14.010376" id="Fill-12" fill="#A4B0B8"></path>
            </g>
        </g>
    </g>
</svg>