<?xml version="1.0" encoding="UTF-8"?>
<svg width="14px" height="17px" viewBox="0 0 14 17" version="1.1" xmlns="http://www.w3.org/2000/svg" xmlns:xlink="http://www.w3.org/1999/xlink">
    <!-- Generator: Sketch 44.1 (41455) - http://www.bohemiancoding.com/sketch -->
    <title>plane icon off</title>
    <desc>Created with Sketch.</desc>
    <defs></defs>
    <g id="HSBC-ARTWORK" stroke="none" stroke-width="1" fill="none" fill-rule="evenodd">
        <g id="Visual-Design-/-ECM-/-Full-Order-Book-/-iPad-Landscape-/-3.0-Engagment" transform="translate(-678.000000, -582.000000)" fill="#000000">
            <g id="Group-2" transform="translate(20.000000, 324.000000)">
                <g id="Table-Row---Investor-Detail" transform="translate(0.000000, 252.000000)">
                    <path d="M673.538792,15.992 L667.747792,11.736 L667.747792,9 C667.747792,8.25 666.997792,6 666.247792,6 C665.497792,6 664.747792,8.25 664.747792,9 L664.747792,11.736 L658.957792,15.992 C658.826792,16.086 658.747792,16.236 658.747792,16.398 L658.747792,16.5 C658.747792,16.654 658.818792,16.801 658.940792,16.894 C659.061792,16.99 659.219792,17.023 659.369792,16.986 L664.747792,15.539 L664.747792,16.5 L664.747792,19.724 L662.970792,21.013 C662.831792,21.107 662.747792,21.263 662.747792,21.429 L662.747792,21.5 C662.747792,21.656 662.821792,21.804 662.946792,21.898 C663.072792,21.994 663.234792,22.023 663.385792,21.98 L666.247792,21 L669.110792,21.967 C669.261792,22.01 669.423792,21.98 669.549792,21.885 C669.674792,21.791 669.747792,21.642 669.747792,21.486 L669.747792,21.416 C669.747792,21.25 669.664792,21.094 669.525792,21 L667.747792,19.721 L667.747792,16.5 L667.747792,15.539 L673.126792,16.986 C673.276792,17.023 673.434792,16.99 673.555792,16.894 C673.677792,16.801 673.747792,16.654 673.747792,16.5 L673.747792,16.398 C673.747792,16.236 673.669792,16.086 673.538792,15.992" id="plane-icon-off" transform="translate(666.247792, 13.999698) rotate(26.000000) translate(-666.247792, -13.999698) "></path>
                </g>
            </g>
        </g>
    </g>
</svg>