<?xml version="1.0" encoding="UTF-8"?>
<svg width="19px" height="19px" viewBox="0 0 19 19" version="1.1" xmlns="http://www.w3.org/2000/svg" xmlns:xlink="http://www.w3.org/1999/xlink">
    <!-- Generator: Sketch 43.2 (39069) - http://www.bohemiancoding.com/sketch -->
    <title>Pricing_Icon</title>
    <desc>Created with Sketch.</desc>
    <defs></defs>
    <g id="Symbols" stroke="none" stroke-width="1" fill="none" fill-rule="evenodd">
        <g id="Pricing-Icon" transform="translate(-19.000000, -11.000000)" fill="#A4B0B8">
            <g id="Group-2">
                <g id="Group-7" transform="translate(19.000000, 11.000000)">
                    <g id="Pricing_Icon">
                        <path d="M18.5477,1.1952 L17.8047,1.1952 L17.8047,0.4522 C17.8047,0.2022 17.6027,0.0002 17.3527,0.0002 C17.1027,0.0002 16.9007,0.2022 16.9007,0.4522 L16.9007,1.6472 C16.9007,1.8972 17.1027,2.1002 17.3527,2.1002 L18.5477,2.1002 C18.7977,2.1002 18.9997,1.8972 18.9997,1.6472 C18.9997,1.3972 18.7977,1.1952 18.5477,1.1952" id="Fill-1"></path>
                        <path d="M16.1571,3.2948 L17.3521,3.2948 C17.6021,3.2948 17.8041,3.0928 17.8041,2.8428 C17.8041,2.5928 17.6021,2.3908 17.3521,2.3908 L16.6091,2.3908 L16.6091,1.6478 C16.6091,1.3978 16.4071,1.1948 16.1571,1.1948 C15.9071,1.1948 15.7051,1.3978 15.7051,1.6478 L15.7051,2.8428 C15.7051,3.0928 15.9071,3.2948 16.1571,3.2948" id="Fill-3"></path>
                        <path d="M11.2723,7.0878 C10.6193,6.5728 9.7973,6.2628 8.9043,6.2628 C6.7913,6.2628 5.0713,7.9828 5.0713,10.0958 C5.0713,12.2098 6.7913,13.9288 8.9043,13.9288 C11.0173,13.9288 12.7373,12.2098 12.7373,10.0958 C12.7373,9.2018 12.4263,8.3808 11.9123,7.7278 L13.0713,6.5678 C13.8783,7.5208 14.3683,8.7518 14.3683,10.0958 C14.3683,13.1088 11.9173,15.5598 8.9043,15.5598 C5.8913,15.5598 3.4403,13.1088 3.4403,10.0958 C3.4403,7.0828 5.8913,4.6328 8.9043,4.6328 C10.2483,4.6328 11.4793,5.1208 12.4313,5.9288 L11.2723,7.0878 Z M11.8323,10.0958 C11.8323,11.7108 10.5183,13.0248 8.9043,13.0248 C7.2893,13.0248 5.9753,11.7108 5.9753,10.0958 C5.9753,8.4818 7.2893,7.1678 8.9043,7.1678 C9.5483,7.1678 10.1423,7.3798 10.6263,7.7338 L8.4153,9.9448 C8.2383,10.1218 8.2383,10.4078 8.4153,10.5848 C8.5033,10.6728 8.6193,10.7178 8.7353,10.7178 C8.8503,10.7178 8.9663,10.6728 9.0543,10.5848 L11.2663,8.3728 C11.6203,8.8578 11.8323,9.4518 11.8323,10.0958 L11.8323,10.0958 Z M8.9043,18.0958 C4.4933,18.0958 0.9053,14.5068 0.9053,10.0958 C0.9053,5.6858 4.4933,2.0968 8.9043,2.0968 C10.9473,2.0968 12.8123,2.8678 14.2273,4.1328 L13.0733,5.2878 C11.9553,4.3168 10.4973,3.7278 8.9043,3.7278 C5.3923,3.7278 2.5353,6.5848 2.5353,10.0958 C2.5353,13.6078 5.3923,16.4648 8.9043,16.4648 C12.4163,16.4648 15.2723,13.6078 15.2723,10.0958 C15.2723,8.5028 14.6833,7.0448 13.7123,5.9278 L14.8673,4.7728 C16.1323,6.1878 16.9033,8.0528 16.9033,10.0958 C16.9033,14.5068 13.3143,18.0958 8.9043,18.0958 L8.9043,18.0958 Z M16.1573,4.4898 C16.4073,4.4898 16.6093,4.2878 16.6093,4.0378 C16.6093,3.7878 16.4073,3.5858 16.1573,3.5858 L15.4143,3.5858 L15.4143,2.8428 C15.4143,2.5928 15.2113,2.3908 14.9613,2.3908 C14.7113,2.3908 14.5093,2.5928 14.5093,2.8428 L14.5093,3.1848 C12.9773,1.9408 11.0273,1.1918 8.9043,1.1918 C3.9943,1.1918 0.0003,5.1868 0.0003,10.0958 C0.0003,15.0058 3.9943,18.9998 8.9043,18.9998 C13.8133,18.9998 17.8083,15.0058 17.8083,10.0958 C17.8083,7.9738 17.0603,6.0228 15.8153,4.4898 L16.1573,4.4898 Z" id="Fill-5"></path>
                    </g>
                </g>
            </g>
        </g>
    </g>
</svg>