<?xml version="1.0" encoding="UTF-8"?>
<svg width="13px" height="15px" viewBox="0 0 13 15" version="1.1" xmlns="http://www.w3.org/2000/svg" xmlns:xlink="http://www.w3.org/1999/xlink">
    <!-- Generator: Sketch 44.1 (41455) - http://www.bohemiancoding.com/sketch -->
    <title>Icons / Profile / Dark Gray</title>
    <desc>Created with Sketch.</desc>
    <defs>
        <polygon id="path-1" points="0 0.000107142857 0 15 12.7144286 15 12.7144286 0.000107142857"></polygon>
    </defs>
    <g id="HSBC-Artwork" stroke="none" stroke-width="1" fill="none" fill-rule="evenodd">
        <g id="Components" transform="translate(-392.000000, -132.000000)">
            <g id="Icons-/-Profile-/-Dark-Gray" transform="translate(386.000000, 127.000000)">
                <g id="Page-1" transform="translate(6.000000, 5.000000)">
                    <mask id="mask-2" fill="white">
                        <use xlink:href="#path-1"></use>
                    </mask>
                    <g id="Clip-2"></g>
                    <path d="M6.21192857,6.98046429 C5.22835714,6.98046429 4.41835714,6.63439286 3.78085714,5.94225 C3.08871429,5.27689286 2.74264286,4.45296429 2.74264286,3.46939286 C2.74264286,2.48582143 3.07478571,1.66189286 3.73907143,0.997607143 C4.40442857,0.33225 5.22192857,0.000107142857 6.1905,0.000107142857 C7.188,0.000107142857 8.01942857,0.33225 8.68478571,0.997607143 C9.37692857,1.66189286 9.723,2.49332143 9.723,3.49082143 C9.723,4.43260714 9.37692857,5.24903571 8.68478571,5.94225 C8.01942857,6.63439286 7.1955,6.98046429 6.21192857,6.98046429 M4.65407143,7.85260714 L8.06121429,7.85260714 C8.69764286,7.85260714 9.29335714,8.01975 9.84835714,8.35189286 C10.4301429,8.71189286 10.9283571,9.16832143 11.3440714,9.72332143 C11.7587143,10.3051071 12.0908571,10.9276071 12.3405,11.5929643 C12.5901429,12.25725 12.7144286,12.9086786 12.7144286,13.5451071 L12.7144286,15.0001071 L-0.000214285714,15.0001071 L-0.000214285714,13.5451071 C-0.000214285714,12.6868929 0.207642857,11.81475 0.623357143,10.9276071 C1.03907143,10.0693929 1.60692857,9.33546429 2.32692857,8.72582143 C3.07478571,8.14403571 3.8505,7.85260714 4.65407143,7.85260714" id="Fill-1" fill="#4F595F" mask="url(#mask-2)"></path>
                </g>
            </g>
        </g>
    </g>
</svg>