<?xml version="1.0" encoding="UTF-8"?>
<svg width="13px" height="15px" viewBox="0 0 13 15" version="1.1" xmlns="http://www.w3.org/2000/svg" xmlns:xlink="http://www.w3.org/1999/xlink">
    <!-- Generator: Sketch 44.1 (41455) - http://www.bohemiancoding.com/sketch -->
    <title>Icons / Train / Medium Gray</title>
    <desc>Created with Sketch.</desc>
    <defs></defs>
    <g id="HSBC-Artwork" stroke="none" stroke-width="1" fill="none" fill-rule="evenodd">
        <g id="Components" transform="translate(-468.000000, -132.000000)" fill="#000000">
            <g id="Icons-/-Train-/-Medium-Gray" transform="translate(462.000000, 127.000000)">
                <path d="M15.500625,15.5890625 C15.7621875,15.8515625 16.078125,15.981875 16.445625,15.981875 C16.815,15.981875 17.13,15.8515625 17.3925,15.5890625 C17.6540625,15.3265625 17.78625,15.0115625 17.78625,14.643125 C17.78625,14.2746875 17.6540625,13.9596875 17.3925,13.6971875 C17.13,13.4346875 16.815,13.3034375 16.445625,13.3034375 C16.078125,13.3034375 15.7621875,13.4346875 15.500625,13.6971875 C15.238125,13.9596875 15.106875,14.2746875 15.106875,14.643125 C15.106875,15.0115625 15.238125,15.3265625 15.500625,15.5890625 L15.500625,15.5890625 Z M12.9646875,11.4284375 L17.78625,11.4284375 L17.78625,7.143125 L12.9646875,7.143125 L12.9646875,11.4284375 Z M7.3396875,11.4284375 L11.893125,11.4284375 L11.893125,7.143125 L7.3396875,7.143125 L7.3396875,11.4284375 Z M7.464375,15.5890625 C7.726875,15.8515625 8.041875,15.981875 8.41125,15.981875 C8.77875,15.981875 9.0946875,15.8515625 9.35625,15.5890625 C9.61875,15.3265625 9.75,15.0115625 9.75,14.643125 C9.75,14.2746875 9.61875,13.9596875 9.35625,13.6971875 C9.0946875,13.4346875 8.77875,13.3034375 8.41125,13.3034375 C8.041875,13.3034375 7.726875,13.4346875 7.464375,13.6971875 C7.201875,13.9596875 7.070625,14.2746875 7.070625,14.643125 C7.070625,15.0115625 7.201875,15.3265625 7.464375,15.5890625 L7.464375,15.5890625 Z M15.106875,5 C16.1390625,5 17.0221875,5.260625 17.75625,5.78375 C18.4903125,6.305 18.856875,6.936875 18.856875,7.6784375 L18.856875,15.179375 C18.856875,15.9040625 18.5071875,16.5228125 17.8059375,17.0365625 C17.105625,17.55125 16.2534375,17.8203125 15.249375,17.8484375 L17.0315625,19.5396875 C17.1215625,19.6240625 17.143125,19.7215625 17.0990625,19.8321875 C17.055,19.9446875 16.970625,20 16.8478125,20 L8.008125,20 C7.8853125,20 7.8028125,19.9446875 7.7578125,19.8321875 C7.7128125,19.7215625 7.7353125,19.6240625 7.824375,19.5396875 L9.6075,17.8484375 C8.6034375,17.8203125 7.7503125,17.55125 7.05,17.0365625 C6.350625,16.5228125 6,15.9040625 6,15.179375 L6,7.6784375 C6,6.936875 6.3665625,6.305 7.100625,5.78375 C7.8346875,5.260625 8.716875,5 9.75,5 L15.106875,5 Z" id="Fill-1"></path>
            </g>
        </g>
    </g>
</svg>